<mxfile host="65bd71144e">
    <diagram id="i01F55FS2lRdzMfF5ygt" name="Pagina-1">
        <mxGraphModel dx="722" dy="692" grid="1" gridSize="10" guides="1" tooltips="1" connect="1" arrows="1" fold="1" page="1" pageScale="1" pageWidth="827" pageHeight="1169" math="0" shadow="0">
            <root>
                <mxCell id="0"/>
                <mxCell id="1" parent="0"/>
                <mxCell id="2" value="&lt;p style=&quot;caret-color: rgb(0, 0, 0); text-align: start; font-size: 16px;&quot;&gt;&lt;font style=&quot;font-size: 16px;&quot;&gt;Immagina di essere nella tranquilla biblioteca di una scuola, dove centinaia di libri riposano sugli scaffali, ognuno con una storia da raccontare, non solo attraverso le sue pagine, ma anche attraverso le informazioni che lo definiscono come entità. Tra questi libri, c’è un volume particolare, che incarna perfettamente ciò che un sistema di gestione deve sapere su ogni testo presente in biblioteca. È come se questo libro avesse un'identità unica e ben definita, composta da diverse sfaccettature, proprio come una persona.&lt;/font&gt;&lt;/p&gt;&lt;p style=&quot;caret-color: rgb(0, 0, 0); text-align: start; font-size: 16px;&quot;&gt;&lt;font style=&quot;font-size: 16px;&quot;&gt;Innanzitutto,&lt;span class=&quot;Apple-converted-space&quot;&gt;&amp;nbsp;&lt;/span&gt;&lt;strong&gt;il Codice ISBN&lt;/strong&gt;&lt;span class=&quot;Apple-converted-space&quot;&gt;&amp;nbsp;&lt;/span&gt;(International Standard Book Number) è come il suo&lt;span class=&quot;Apple-converted-space&quot;&gt;&amp;nbsp;&lt;/span&gt;&lt;strong&gt;nome personale&lt;/strong&gt;, un numero che lo identifica univocamente. Nessun altro libro al mondo potrà mai avere lo stesso codice. È ciò che lo distingue da tutti gli altri, la sua impronta digitale, per così dire.&lt;/font&gt;&lt;/p&gt;&lt;p style=&quot;caret-color: rgb(0, 0, 0); text-align: start; font-size: 16px;&quot;&gt;&lt;font style=&quot;font-size: 16px;&quot;&gt;Poi, c'è&lt;span class=&quot;Apple-converted-space&quot;&gt;&amp;nbsp;&lt;/span&gt;&lt;strong&gt;il Titolo&lt;/strong&gt;, che rappresenta&lt;span class=&quot;Apple-converted-space&quot;&gt;&amp;nbsp;&lt;/span&gt;&lt;strong&gt;la sua personalità&lt;/strong&gt;. Il titolo non è solo un insieme di parole, ma racchiude il cuore del libro, ciò che attira i lettori e che spesso evoca le emozioni o le riflessioni che il libro suscita.&lt;/font&gt;&lt;/p&gt;&lt;p style=&quot;caret-color: rgb(0, 0, 0); text-align: start; font-size: 16px;&quot;&gt;&lt;font style=&quot;font-size: 16px;&quot;&gt;&lt;strong&gt;L'Autore&lt;/strong&gt;, invece, è il suo&lt;span class=&quot;Apple-converted-space&quot;&gt;&amp;nbsp;&lt;/span&gt;&lt;strong&gt;creatore&lt;/strong&gt;, colui che gli ha dato vita, che ha messo insieme parole, frasi, storie e concetti per creare un'opera unica. Ogni libro è una parte dell'anima del suo autore.&lt;/font&gt;&lt;/p&gt;&lt;p style=&quot;caret-color: rgb(0, 0, 0); text-align: start; font-size: 16px;&quot;&gt;&lt;font style=&quot;font-size: 16px;&quot;&gt;E non dimentichiamo la&lt;span class=&quot;Apple-converted-space&quot;&gt;&amp;nbsp;&lt;/span&gt;&lt;strong&gt;Data di Pubblicazione&lt;/strong&gt;, che segna il giorno in cui il libro è stato&lt;span class=&quot;Apple-converted-space&quot;&gt;&amp;nbsp;&lt;/span&gt;&lt;strong&gt;introdotto nel mondo&lt;/strong&gt;. È come il suo compleanno, il momento in cui è stato reso disponibile ai lettori, pronto a influenzare, ispirare e intrattenere.&lt;/font&gt;&lt;/p&gt;&lt;p style=&quot;caret-color: rgb(0, 0, 0); text-align: start; font-size: 16px;&quot;&gt;&lt;font style=&quot;font-size: 16px;&quot;&gt;Infine, il&lt;span class=&quot;Apple-converted-space&quot;&gt;&amp;nbsp;&lt;/span&gt;&lt;strong&gt;Genere Letterario&lt;/strong&gt;&lt;span class=&quot;Apple-converted-space&quot;&gt;&amp;nbsp;&lt;/span&gt;è come&lt;span class=&quot;Apple-converted-space&quot;&gt;&amp;nbsp;&lt;/span&gt;&lt;strong&gt;l'essenza del libro&lt;/strong&gt;, la categoria in cui si inserisce. Che sia un romanzo d'avventura, un saggio filosofico o una biografia, il genere ci racconta subito che tipo di viaggio ci aspetta tra quelle pagine.&lt;/font&gt;&lt;/p&gt;&lt;p style=&quot;caret-color: rgb(0, 0, 0); text-align: start; font-size: 16px;&quot;&gt;&lt;font style=&quot;font-size: 16px;&quot;&gt;Ecco quindi il&lt;span style=&quot;&quot; class=&quot;Apple-converted-space&quot;&gt;&amp;nbsp;&lt;/span&gt;&lt;strong style=&quot;&quot;&gt;Libro&lt;/strong&gt;: una creatura con una sua identità precisa, composta da diversi attributi che lo rendono unico e riconoscibile, pronto ad essere gestito in un sistema organizzato che ne conserva la memoria e lo rende disponibile per ogni lettore curioso.&lt;/font&gt;&lt;/p&gt;" style="text;html=1;strokeColor=none;fillColor=none;align=center;verticalAlign=middle;whiteSpace=wrap;rounded=0;fontSize=22;" parent="1" vertex="1">
                    <mxGeometry x="40" y="370" width="760" height="30" as="geometry"/>
                </mxCell>
                <mxCell id="3" value="Esericizi da svolgere su Draw.io o su Diagrams.net con l'estensione (a sinsitra) del pacchetto &quot;Entità-relazione&quot;" style="text;html=1;strokeColor=none;fillColor=none;align=center;verticalAlign=middle;whiteSpace=wrap;rounded=0;fontSize=22;fontStyle=1" vertex="1" parent="1">
                    <mxGeometry x="120" y="60" width="570" height="30" as="geometry"/>
                </mxCell>
            </root>
        </mxGraphModel>
    </diagram>
</mxfile>